<svg width="113" height="33" viewBox="0 0 113 33" fill="none" xmlns="http://www.w3.org/2000/svg">
<path d="M1.52348 14.9651L14.8539 1.53488C15.6953 0.687192 17.0594 0.68719 17.9008 1.53488L31.2312 14.9651C32.0726 15.8128 32.0726 17.1872 31.2312 18.0349L17.9008 31.4651C17.0594 32.3128 15.6953 32.3128 14.8539 31.4651L1.52348 18.0349C0.682083 17.1872 0.682083 15.8128 1.52348 14.9651Z" fill="#D03030"/>
<path d="M14.2004 12.9476L15.8425 12.8089C16.1584 12.7822 16.47 12.8971 16.6942 13.123L26.4004 22.9019L24.9837 24.3292L14.0335 13.4109C13.9277 13.3055 13.9269 13.1337 14.0315 13.0272C14.0766 12.9812 14.1365 12.953 14.2004 12.9476Z" fill="white"/>
<path d="M21.8257 13.6226L22.5309 13.4039C22.9123 13.2856 23.3273 13.3895 23.6095 13.6738L29.5847 19.6937L28.7182 20.5667L21.8257 13.6226Z" fill="white"/>
<path d="M13.922 23.7605L14.1573 22.5622C14.2401 22.1401 14.5626 21.8073 14.9793 21.7135L15.1374 21.678C15.3989 21.6191 15.5636 21.3579 15.5052 21.0945C15.4857 21.0068 15.4427 20.9262 15.3807 20.8615L11.7241 17.046C11.5013 16.8136 11.393 16.4931 11.4285 16.1719L11.816 12.6697C11.8713 12.1703 12.2596 11.7744 12.7546 11.7128L16.2794 11.2743C16.6088 11.2334 16.9385 11.3476 17.1732 11.584L19.2568 13.6833C19.5004 13.9287 19.8954 13.9287 20.139 13.6833C20.2168 13.6049 20.2727 13.5072 20.3009 13.4L20.3916 13.0557C20.5046 12.6264 20.8658 12.3099 21.3034 12.2565L23.1154 12.0356C23.444 11.9955 23.7726 12.1099 24.0066 12.3456L30.4424 18.8296L29.8001 19.4766L23.6462 13.2228C23.4047 12.9773 23.0615 12.8624 22.7221 12.9134L22.0678 13.0119C21.633 13.0772 21.2813 13.4023 21.1791 13.833L20.9771 14.6849C20.8901 15.0518 20.9983 15.4379 21.2631 15.7046L27.4036 21.8911L26.667 22.6332L16.8805 12.7735C16.6608 12.552 16.3568 12.437 16.0467 12.458L13.7132 12.6158C13.1717 12.6524 12.7419 13.089 12.7099 13.6348L12.574 15.9574C12.5559 16.267 12.67 16.5695 12.8877 16.7887L22.6778 26.6522L21.8924 27.4436L17.0702 22.5852C16.8136 22.3267 16.4451 22.2157 16.0898 22.2899L15.6723 22.3771C15.2364 22.4681 14.901 22.8198 14.8282 23.2623L14.773 23.5975C14.7162 23.943 14.8283 24.2949 15.074 24.5425L19.923 29.4277L19.3972 29.9575L14.217 24.7386C13.9629 24.4825 13.8523 24.1157 13.922 23.7605Z" fill="white"/>
<path d="M15.894 22.7708L15.3448 22.9527L20.8474 28.4965L21.7118 27.6256L16.9788 23.0211C16.6913 22.7414 16.2737 22.645 15.894 22.7708Z" fill="white"/>
<path d="M42.5988 14.4287V7.26535H44.316V9.97689H47.0877V7.26535H48.805V14.4287H47.0877V11.4338H44.316V14.4287H42.5988Z" fill="#D03030"/>
<path d="M52.6982 14.5906C51.9216 14.5906 51.2655 14.341 50.7299 13.8419C50.1943 13.3427 49.9265 12.6918 49.9265 11.8891C49.9265 11.0865 50.1943 10.4423 50.7299 9.95666C51.2655 9.47101 51.9216 9.22818 52.6982 9.22818C53.4815 9.22818 54.141 9.47101 54.6766 9.95666C55.2122 10.4423 55.48 11.0865 55.48 11.8891C55.48 12.6918 55.2122 13.3427 54.6766 13.8419C54.141 14.341 53.4815 14.5906 52.6982 14.5906ZM51.8346 12.8098C52.0488 13.0662 52.34 13.1943 52.7082 13.1943C53.0765 13.1943 53.3644 13.0662 53.5719 12.8098C53.7861 12.5468 53.8933 12.2399 53.8933 11.8891C53.8933 11.5451 53.7861 11.245 53.5719 10.9887C53.3577 10.7323 53.0664 10.6042 52.6982 10.6042C52.33 10.6042 52.0421 10.7323 51.8346 10.9887C51.627 11.2382 51.5232 11.5384 51.5232 11.8891C51.5232 12.2399 51.627 12.5468 51.8346 12.8098Z" fill="#D03030"/>
<path d="M56.5227 14.4287V9.39006H59.2945C60.5197 9.39006 61.1323 9.83187 61.1323 10.7155C61.1323 10.9718 61.0586 11.1944 60.9113 11.3833C60.7707 11.5721 60.5799 11.7036 60.3389 11.7778V11.7981C60.6268 11.852 60.8678 11.9836 61.062 12.1927C61.2561 12.4018 61.3532 12.6648 61.3532 12.9818C61.3532 13.4608 61.1724 13.8216 60.8109 14.0644C60.4494 14.3073 59.9874 14.4287 59.425 14.4287H56.5227ZM58.1295 13.4068H58.943C59.1639 13.4068 59.3447 13.3596 59.4853 13.2651C59.6326 13.164 59.7062 13.0223 59.7062 12.8402C59.7062 12.4692 59.4451 12.2837 58.9229 12.2837H58.1295V13.4068ZM58.1295 11.4237H58.9329C59.107 11.4237 59.2543 11.3799 59.3748 11.2922C59.502 11.2045 59.5656 11.073 59.5656 10.8976C59.5656 10.5671 59.3313 10.4018 58.8627 10.4018H58.1295V11.4237Z" fill="#D03030"/>
<path d="M64.9179 14.5906C64.1413 14.5906 63.4852 14.341 62.9496 13.8419C62.414 13.3427 62.1462 12.6918 62.1462 11.8891C62.1462 11.0865 62.414 10.4423 62.9496 9.95666C63.4852 9.47101 64.1413 9.22818 64.9179 9.22818C65.7012 9.22818 66.3607 9.47101 66.8963 9.95666C67.4319 10.4423 67.6997 11.0865 67.6997 11.8891C67.6997 12.6918 67.4319 13.3427 66.8963 13.8419C66.3607 14.341 65.7012 14.5906 64.9179 14.5906ZM64.0542 12.8098C64.2685 13.0662 64.5597 13.1943 64.9279 13.1943C65.2961 13.1943 65.584 13.0662 65.7916 12.8098C66.0058 12.5468 66.1129 12.2399 66.1129 11.8891C66.1129 11.5451 66.0058 11.245 65.7916 10.9887C65.5773 10.7323 65.2861 10.6042 64.9179 10.6042C64.5497 10.6042 64.2618 10.7323 64.0542 10.9887C63.8467 11.2382 63.7429 11.5384 63.7429 11.8891C63.7429 12.2399 63.8467 12.5468 64.0542 12.8098Z" fill="#D03030"/>
<path d="M71.2932 14.5906C70.4831 14.5906 69.8136 14.3477 69.2847 13.8621C68.7558 13.3764 68.4914 12.7255 68.4914 11.9094C68.4914 11.1067 68.7558 10.4592 69.2847 9.96677C69.8203 9.47438 70.4865 9.22818 71.2832 9.22818C71.638 9.22818 71.9861 9.29226 72.3276 9.42042C72.6757 9.54183 72.9469 9.70371 73.141 9.90607L72.187 11.019C72.1 10.8976 71.9728 10.7998 71.8054 10.7256C71.6447 10.6514 71.4807 10.6143 71.3133 10.6143C70.9719 10.6143 70.694 10.7425 70.4798 10.9988C70.2655 11.2483 70.1584 11.5519 70.1584 11.9094C70.1584 12.2669 70.2655 12.5704 70.4798 12.82C70.694 13.0695 70.9785 13.1943 71.3334 13.1943C71.7217 13.1943 72.0196 13.0695 72.2272 12.82L73.141 13.943C72.6992 14.3747 72.0832 14.5906 71.2932 14.5906Z" fill="#D03030"/>
<path d="M75.0241 14.4287V10.6649H73.5278V9.39006H78.1774V10.6649H76.6811V14.4287H75.0241Z" fill="#D03030"/>
<path d="M79.0203 16.8569V9.39006H80.5869V10.0072H80.617C80.7777 9.78465 80.9953 9.60254 81.2698 9.46089C81.551 9.31924 81.8657 9.24842 82.2138 9.24842C82.9168 9.24842 83.4858 9.5081 83.921 10.0275C84.3629 10.5401 84.5838 11.1607 84.5838 11.8891C84.5838 12.6311 84.3662 13.2651 83.9311 13.7913C83.5026 14.3106 82.9268 14.5703 82.2038 14.5703C81.8958 14.5703 81.6046 14.5096 81.3301 14.3882C81.0556 14.26 80.8413 14.088 80.6873 13.8722H80.6673V16.8569H79.0203ZM81.8121 13.1943C82.1803 13.1943 82.4682 13.0662 82.6758 12.8098C82.8833 12.5535 82.9871 12.2466 82.9871 11.8891C82.9871 11.5384 82.8833 11.2382 82.6758 10.9887C82.4682 10.7323 82.1803 10.6042 81.8121 10.6042C81.4573 10.6042 81.166 10.7357 80.9384 10.9988C80.7175 11.2618 80.607 11.562 80.607 11.8993C80.607 12.2433 80.7175 12.5468 80.9384 12.8098C81.166 13.0662 81.4573 13.1943 81.8121 13.1943Z" fill="#D03030"/>
<path d="M88.1411 14.5906C87.3645 14.5906 86.7084 14.341 86.1728 13.8419C85.6372 13.3427 85.3694 12.6918 85.3694 11.8891C85.3694 11.0865 85.6372 10.4423 86.1728 9.95666C86.7084 9.47101 87.3645 9.22818 88.1411 9.22818C88.9245 9.22818 89.5839 9.47101 90.1195 9.95666C90.6551 10.4423 90.9229 11.0865 90.9229 11.8891C90.9229 12.6918 90.6551 13.3427 90.1195 13.8419C89.5839 14.341 88.9245 14.5906 88.1411 14.5906ZM87.2775 12.8098C87.4917 13.0662 87.783 13.1943 88.1512 13.1943C88.5194 13.1943 88.8073 13.0662 89.0148 12.8098C89.2291 12.5468 89.3362 12.2399 89.3362 11.8891C89.3362 11.5451 89.2291 11.245 89.0148 10.9887C88.8006 10.7323 88.5094 10.6042 88.1411 10.6042C87.7729 10.6042 87.485 10.7323 87.2775 10.9887C87.0699 11.2382 86.9662 11.5384 86.9662 11.8891C86.9662 12.2399 87.0699 12.5468 87.2775 12.8098Z" fill="#D03030"/>
<path d="M94.5265 8.64135C93.5691 8.64135 93.0168 8.19955 92.8695 7.31594L93.6729 7.15405C93.7332 7.55202 94.0177 7.751 94.5265 7.751C95.042 7.751 95.3232 7.55202 95.3701 7.15405L96.1735 7.31594C96.1065 7.76111 95.9258 8.095 95.6312 8.31759C95.3433 8.53343 94.9751 8.64135 94.5265 8.64135ZM91.9657 14.4287V9.39006H93.5926V12.3242H93.6127L95.35 9.39006H97.0974V14.4287H95.4906V11.5654H95.4605L93.7533 14.4287H91.9657Z" fill="#D03030"/>
<path d="M98.3795 14.4287V9.39006H100.037V11.5249H100.067L101.704 9.39006H103.702L101.744 11.7475L103.792 14.4287H101.774L100.067 12.1522H100.037V14.4287H98.3795Z" fill="#D03030"/>
<path d="M104.391 14.4287V9.39006H106.018V12.3242H106.038L107.776 9.39006H109.523V14.4287H107.916V11.5654H107.886L106.179 14.4287H104.391Z" fill="#D03030"/>
<path d="M42.5988 27.0758V19.9125H48.7648V27.0758H47.0476V21.3795H44.316V27.0758H42.5988Z" fill="#D03030"/>
<path d="M52.6389 27.2377C51.8556 27.2377 51.1995 27.0016 50.6706 26.5294C50.1484 26.0505 49.8873 25.3996 49.8873 24.5767C49.8873 23.7673 50.1417 23.1164 50.6505 22.624C51.166 22.1249 51.8121 21.8753 52.5887 21.8753C53.3385 21.8753 53.9444 22.1215 54.4064 22.6139C54.8683 23.0995 55.0993 23.7673 55.0993 24.6172C55.0993 24.7993 55.096 24.9308 55.0893 25.0118H51.4639C51.4907 25.2816 51.6213 25.5076 51.8556 25.6897C52.0899 25.8718 52.3577 25.9629 52.659 25.9629C53.141 25.9629 53.5092 25.7875 53.7637 25.4367L54.9085 26.1652C54.4198 26.8802 53.6632 27.2377 52.6389 27.2377ZM51.4639 23.9798H53.5829C53.5829 23.7032 53.4959 23.4739 53.3218 23.2918C53.1544 23.1097 52.9134 23.0186 52.5987 23.0186C52.2908 23.0186 52.0296 23.113 51.8154 23.3019C51.6012 23.4908 51.484 23.7167 51.4639 23.9798Z" fill="#D03030"/>
<path d="M57.0574 27.0758V23.312H55.5611V22.0372H60.2108V23.312H58.7144V27.0758H57.0574Z" fill="#D03030"/>
<path d="M63.3581 27.2377C62.5748 27.2377 61.9187 27.0016 61.3897 26.5294C60.8675 26.0505 60.6064 25.3996 60.6064 24.5767C60.6064 23.7673 60.8608 23.1164 61.3697 22.624C61.8852 22.1249 62.5312 21.8753 63.3079 21.8753C64.0577 21.8753 64.6636 22.1215 65.1256 22.6139C65.5875 23.0995 65.8185 23.7673 65.8185 24.6172C65.8185 24.7993 65.8151 24.9308 65.8084 25.0118H62.1831C62.2099 25.2816 62.3404 25.5076 62.5748 25.6897C62.8091 25.8718 63.0769 25.9629 63.3782 25.9629C63.8602 25.9629 64.2284 25.7875 64.4828 25.4367L65.6277 26.1652C65.1389 26.8802 64.3824 27.2377 63.3581 27.2377ZM62.1831 23.9798H64.3021C64.3021 23.7032 64.215 23.4739 64.041 23.2918C63.8736 23.1097 63.6326 23.0186 63.3179 23.0186C63.0099 23.0186 62.7488 23.113 62.5346 23.3019C62.3204 23.4908 62.2032 23.7167 62.1831 23.9798Z" fill="#D03030"/>
<path d="M66.8398 29.504V22.0372H68.4065V22.6544H68.4366C68.5973 22.4318 68.8149 22.2497 69.0894 22.108C69.3706 21.9664 69.6852 21.8955 70.0334 21.8955C70.7363 21.8955 71.3054 22.1552 71.7406 22.6746C72.1824 23.1872 72.4034 23.8078 72.4034 24.5363C72.4034 25.2782 72.1858 25.9123 71.7506 26.4384C71.3221 26.9578 70.7464 27.2174 70.0233 27.2174C69.7153 27.2174 69.4241 27.1567 69.1496 27.0353C68.8751 26.9072 68.6609 26.7352 68.5069 26.5193H68.4868V29.504H66.8398ZM69.6317 25.8414C69.9999 25.8414 70.2878 25.7133 70.4953 25.457C70.7029 25.2007 70.8066 24.8937 70.8066 24.5363C70.8066 24.1855 70.7029 23.8854 70.4953 23.6358C70.2878 23.3795 69.9999 23.2513 69.6317 23.2513C69.2768 23.2513 68.9856 23.3828 68.758 23.6459C68.537 23.909 68.4266 24.2091 68.4266 24.5464C68.4266 24.8904 68.537 25.1939 68.758 25.457C68.9856 25.7133 69.2768 25.8414 69.6317 25.8414Z" fill="#D03030"/>
<path d="M76.0812 27.2377C75.3046 27.2377 74.6552 26.9949 74.133 26.5092C73.825 26.2192 73.6041 25.8819 73.4702 25.4974C73.343 25.1062 73.2794 24.597 73.2794 23.9697C73.2794 23.4638 73.2927 23.0321 73.3195 22.6746C73.353 22.3171 73.4166 21.963 73.5103 21.6122C73.6108 21.2615 73.7447 20.9748 73.912 20.7522C74.0794 20.5296 74.307 20.3408 74.5949 20.1856C74.8895 20.0238 75.241 19.9158 75.6494 19.8619L76.734 19.7202C77.0486 19.6798 77.2662 19.6292 77.3867 19.5685C77.5072 19.501 77.5909 19.3897 77.6378 19.2346L78.8027 19.5685C78.7023 20.0541 78.5349 20.4082 78.3006 20.6308C78.0663 20.8534 77.7282 20.9917 77.2863 21.0457L76.0109 21.2177C75.7565 21.2514 75.5523 21.2952 75.3983 21.3492C75.2443 21.3964 75.087 21.4841 74.9263 21.6122C74.7656 21.7337 74.6418 21.9124 74.5547 22.1485C74.4744 22.3846 74.4242 22.6813 74.4041 23.0388H74.4242C74.8192 22.3508 75.4753 22.0068 76.3925 22.0068C77.0754 22.0068 77.6579 22.2429 78.1399 22.7151C78.622 23.1805 78.863 23.8044 78.863 24.5868C78.863 25.3895 78.5985 26.0337 78.0696 26.5193C77.5407 26.9982 76.8779 27.2377 76.0812 27.2377ZM75.2176 25.457C75.4318 25.7133 75.723 25.8414 76.0913 25.8414C76.4595 25.8414 76.7474 25.7133 76.9549 25.457C77.1691 25.1939 77.2763 24.887 77.2763 24.5363C77.2763 24.1923 77.1691 23.8921 76.9549 23.6358C76.7407 23.3795 76.4494 23.2513 76.0812 23.2513C75.713 23.2513 75.4251 23.3795 75.2176 23.6358C75.01 23.8854 74.9062 24.1855 74.9062 24.5363C74.9062 24.887 75.01 25.1939 75.2176 25.457Z" fill="#D03030"/>
<path d="M80.3294 29.504C80.0215 29.504 79.7202 29.4669 79.4256 29.3928L79.6064 27.9965C79.8005 28.0572 79.9779 28.0876 80.1386 28.0876C80.3796 28.0876 80.557 28.0336 80.6709 27.9257C80.7914 27.8245 80.8951 27.6525 80.9822 27.4097L81.1429 26.9949L79.054 22.0372H80.8818L81.9965 25.2748H82.0266L83.0208 22.0372H84.7682L82.5287 27.8346C82.3145 28.4012 82.0433 28.8194 81.7153 29.0892C81.3872 29.3658 80.9253 29.504 80.3294 29.504Z" fill="#D03030"/>
<path d="M85.4047 29.504V22.0372H86.9714V22.6544H87.0015C87.1622 22.4318 87.3797 22.2497 87.6542 22.108C87.9354 21.9664 88.2501 21.8955 88.5982 21.8955C89.3012 21.8955 89.8703 22.1552 90.3055 22.6746C90.7473 23.1872 90.9683 23.8078 90.9683 24.5363C90.9683 25.2782 90.7507 25.9123 90.3155 26.4384C89.887 26.9578 89.3112 27.2174 88.5882 27.2174C88.2802 27.2174 87.989 27.1567 87.7145 27.0353C87.44 26.9072 87.2258 26.7352 87.0718 26.5193H87.0517V29.504H85.4047ZM88.1965 25.8414C88.5648 25.8414 88.8526 25.7133 89.0602 25.457C89.2677 25.2007 89.3715 24.8937 89.3715 24.5363C89.3715 24.1855 89.2677 23.8854 89.0602 23.6358C88.8526 23.3795 88.5648 23.2513 88.1965 23.2513C87.8417 23.2513 87.5505 23.3828 87.3228 23.6459C87.1019 23.909 86.9914 24.2091 86.9914 24.5464C86.9914 24.8904 87.1019 25.1939 87.3228 25.457C87.5505 25.7133 87.8417 25.8414 88.1965 25.8414Z" fill="#D03030"/>
<path d="M92.0049 27.0758V22.0372H95.6704V23.312H93.6619V27.0758H92.0049Z" fill="#D03030"/>
<path d="M97.9049 27.1972C97.6103 27.1972 97.3325 27.1534 97.0714 27.0657C96.8169 26.9713 96.5893 26.7992 96.3885 26.5497C96.1876 26.3001 96.0872 25.9898 96.0872 25.6189C96.0872 24.4857 97.1584 23.9191 99.3008 23.9191V23.8381C99.3008 23.6021 99.2171 23.4233 99.0497 23.3019C98.8823 23.1737 98.6648 23.1097 98.397 23.1097C97.9417 23.1097 97.53 23.2817 97.1617 23.6257L96.3282 22.7252C96.9241 22.1586 97.6672 21.8753 98.5576 21.8753C99.3811 21.8753 99.9703 22.0878 100.325 22.5127C100.68 22.9309 100.857 23.6054 100.857 24.5363V27.0758H99.351V26.5396H99.3209C99.2004 26.7419 99.0096 26.9038 98.7484 27.0252C98.4873 27.1399 98.2062 27.1972 97.9049 27.1972ZM98.3166 26.0843C98.6447 26.0843 98.8991 25.9932 99.0798 25.8111C99.2606 25.6222 99.351 25.3693 99.351 25.0523V24.8803H99.1401C98.1158 24.8803 97.6036 25.1096 97.6036 25.5683C97.6036 25.7436 97.6739 25.8752 97.8145 25.9629C97.9551 26.0438 98.1225 26.0843 98.3166 26.0843Z" fill="#D03030"/>
</svg>
