<svg xmlns="http://www.w3.org/2000/svg" width="8.97" height="8" viewBox="0 0 8.97 8">
  <defs>
    <style>
      .cls-1 {
        fill: #908f91;
        fill-rule: evenodd;
      }
    </style>
  </defs>
  <path id="arrow" class="cls-1" d="M1056.41,1682.46l-3.19-3.28h0a0.7,0.7,0,0,0-.94,0,0.76,0.76,0,0,0-.08,1.04l2.68,2.76-2.67,2.76a0.749,0.749,0,0,0,0,1.04h0a0.69,0.69,0,0,0,1.01,0l3.19-3.27A0.761,0.761,0,0,0,1056.41,1682.46Zm4.38,0-3.18-3.28h-0.01a0.7,0.7,0,0,0-.94,0,0.75,0.75,0,0,0-.07,1.04l2.67,2.76-2.67,2.76a0.749,0.749,0,0,0,0,1.04h0a0.682,0.682,0,0,0,.51.22,0.7,0.7,0,0,0,.51-0.22l3.18-3.27A0.761,0.761,0,0,0,1060.79,1682.46Z" transform="translate(-1052.03 -1679)"/>
</svg>
