<svg xmlns="http://www.w3.org/2000/svg" width="14.94" height="12" viewBox="0 0 14.94 12">
  <defs>
    <style>
      .cls-1 {
        fill: #fff;
        fill-rule: evenodd;
      }
    </style>
  </defs>
  <path id="arrow" class="cls-1" d="M1120.82,39.993l5.55,5.534a0.836,0.836,0,0,0,.99-0.33,0.827,0.827,0,0,0,.33-0.987l-3.79-3.779h10.86a0.936,0.936,0,1,0,0-1.872h-10.61l3.55-3.533a0.841,0.841,0,0,0-.33-0.987,0.85,0.85,0,0,0-1-.329l-5.55,5.534a0.375,0.375,0,0,0-.05.367A0.359,0.359,0,0,0,1120.82,39.993Z" transform="translate(-1120.75 -33.625)"/>
</svg>
