<svg xmlns="http://www.w3.org/2000/svg" width="35" height="30" viewBox="0 0 35 30">
  <defs>
    <style>
      .cls-1 {
        fill: #00aedb;
        fill-rule: evenodd;
      }
    </style>
  </defs>
  <path id="block3_icon2" data-name="block3 icon2" class="cls-1" d="M983.981,2280h-9.3v-1a3.039,3.039,0,0,0-3.077-3h-8.2a3.038,3.038,0,0,0-3.076,3v1h-9.3a1.011,1.011,0,0,0-1.025,1v22a3.045,3.045,0,0,0,3.076,3h28.848a3.046,3.046,0,0,0,3.076-3v-21.98a0.983,0.983,0,0,0-1.019-1.02h0Zm-21.608-1a1.015,1.015,0,0,1,1.025-1h8.2a1.016,1.016,0,0,1,1.026,1v1H962.373v-1Zm20.178,3-3.184,9.31a1.025,1.025,0,0,1-.972.69h-5.768v-1a1.014,1.014,0,0,0-1.026-1h-8.2a1.014,1.014,0,0,0-1.025,1v1h-5.768a1.027,1.027,0,0,1-.973-0.69l-3.184-9.31h30.1Zm-11.975,10v2h-6.152v-2h6.152Zm12.373,11a1.015,1.015,0,0,1-1.025,1H953.076a1.015,1.015,0,0,1-1.025-1v-15.84l1.636,4.79a3.074,3.074,0,0,0,2.918,2.05h5.768v1a1.014,1.014,0,0,0,1.025,1h8.2a1.014,1.014,0,0,0,1.026-1v-1H978.4a3.074,3.074,0,0,0,2.918-2.05l1.636-4.79V2303Zm0,0" transform="translate(-950 -2276)"/>
</svg>
