<svg xmlns="http://www.w3.org/2000/svg" width="30.031" height="30" viewBox="0 0 30.031 30">
  <defs>
    <style>
      .cls-1 {
        fill: #00aedb;
        fill-rule: evenodd;
      }
    </style>
  </defs>
  <path id="block3_icon3" data-name="block3 icon3" class="cls-1" d="M342.267,2574.96a4.4,4.4,0,1,0-6.223,0,4.4,4.4,0,0,0,6.223,0h0Zm-4.979-4.98a2.639,2.639,0,1,1,0,3.73,2.644,2.644,0,0,1,0-3.73h0Zm0,0M320,2589.86a0.9,0.9,0,0,0,.216.89,0.877,0.877,0,0,0,.886.21c0.764-.23,7.519-2.38,9.339-4.19a6.255,6.255,0,0,0,1.176-1.63,0.847,0.847,0,0,0,.452-0.09c0.669-.34,1.381-0.7,2.133-1.07,0.349,4.55.321,3.81,0.322,4.31a0.884,0.884,0,0,0,1.276.79,9.381,9.381,0,0,0,4.1-3.58,9.109,9.109,0,0,0,1.356-4.8v-0.6a23.585,23.585,0,0,0,3.569-2.75c4.373-4.21,5.361-9.4,5.15-15.48a0.885,0.885,0,0,0-.849-0.85c-6.082-.21-11.281.78-15.5,5.14a23.32,23.32,0,0,0-2.7,3.45H330.2a9.181,9.181,0,0,0-8.171,5.07l-0.211.42a0.882,0.882,0,0,0,.784,1.28c0.5,0-.271-0.04,4.407.38-0.369.74-.736,1.48-1.079,2.15a0.856,0.856,0,0,0-.093.47,6.25,6.25,0,0,0-1.613,1.17c-1.818,1.82-3.977,8.55-4.217,9.31h0Zm11.841-6.67-4.061-4.05c0.258-.51.519-1.04,0.831-1.66l4.888,4.88-1.658.83h0Zm4.355,3.67-0.3-3.74c1.182-.6,2.4-1.25,3.588-1.94a7.322,7.322,0,0,1-3.291,5.68h0Zm12.041-24.1a27.5,27.5,0,0,1-.349,5.15,5.653,5.653,0,0,1-4.805-4.8,27.28,27.28,0,0,1,5.154-.35h0Zm-13.346,4.63a13.912,13.912,0,0,1,6.471-3.9,7.436,7.436,0,0,0,6.137,6.14,13.89,13.89,0,0,1-3.895,6.46,37.319,37.319,0,0,1-8.451,5.44l-5.707-5.7a36.716,36.716,0,0,1,5.445-8.44h0Zm-10.864,7.33a7.342,7.342,0,0,1,5.811-3.31c-0.7,1.21-1.366,2.46-1.983,3.66Zm2.933,6.08,0.991,0.99-1.867,1.87a0.879,0.879,0,0,0,1.245,1.24l1.867-1.86,0.991,0.99a4.339,4.339,0,0,1-.991,1.49c-1.009,1.01-4.546,2.38-6.965,3.22,0.843-2.41,2.221-5.94,3.231-6.95a4.405,4.405,0,0,1,1.5-.99h0Zm0,0,7.822-4.6a0.879,0.879,0,1,0-1.245,1.24,0.887,0.887,0,0,0,1.245,0,0.874,0.874,0,0,0,0-1.24h0Zm0,0" transform="translate(-319.969 -2561)"/>
</svg>
