<svg xmlns="http://www.w3.org/2000/svg" width="36" height="30" viewBox="0 0 36 30">
  <defs>
    <style>
      .cls-1 {
        fill: #00aedb;
        fill-rule: evenodd;
      }
    </style>
  </defs>
  <path id="block3_icon1" data-name="block3 icon1" class="cls-1" d="M354.945,2297.43H353.89v-18.22a3.191,3.191,0,0,0-3.164-3.21H325.273a3.185,3.185,0,0,0-3.156,3.21v18.22h-1.055A1.069,1.069,0,0,0,320,2298.5v2.14a5.32,5.32,0,0,0,5.273,5.36h25.453a5.321,5.321,0,0,0,5.274-5.36v-2.14a1.064,1.064,0,0,0-1.055-1.07h0Zm-30.726-18.22a1.063,1.063,0,0,1,1.054-1.07h25.453a1.07,1.07,0,0,1,1.062,1.07v18.22H344.4a1.058,1.058,0,0,0-1.048,1.07v1.07H332.656v-1.07a1.063,1.063,0,0,0-1.055-1.07h-7.382v-18.22Zm29.678,21.43a3.205,3.205,0,0,1-3.171,3.22H325.273a3.2,3.2,0,0,1-3.164-3.22v-1.07h8.445v1.07a1.057,1.057,0,0,0,1.047,1.07h12.8a1.063,1.063,0,0,0,1.055-1.07v-1.07H353.9v1.07Zm0,0-4.225-6.43a1.064,1.064,0,0,0-1.055-1.07H329.944l5.944-5.99,3.475,3.54a1.053,1.053,0,0,0,1.487,0l4.288-4.29a3.143,3.143,0,0,0,1.37.31,3.215,3.215,0,1,0-3.164-3.21,3.263,3.263,0,0,0,.306,1.38l-3.535,3.54-3.479-3.54a1.054,1.054,0,0,0-1.488,0l-6.71,6.76v-10.28a1.055,1.055,0,1,0-2.11,0v12.85a1.062,1.062,0,0,0,1.055,1.07h21.234a1.064,1.064,0,0,0,1.055-1.07h0Zm-3.164-11.78a1.07,1.07,0,1,1-1.055,1.07,1.063,1.063,0,0,1,1.055-1.07h0Zm0,0" transform="translate(-320 -2276)"/>
</svg>
