<svg xmlns="http://www.w3.org/2000/svg" width="30" height="30" viewBox="0 0 30 30">
  <defs>
    <style>
      .cls-1 {
        fill: #00aedb;
        fill-rule: evenodd;
      }
    </style>
  </defs>
  <path id="block3_icon4" data-name="block3 icon4" class="cls-1" d="M979.742,2566.02a0.888,0.888,0,0,0,.191-0.96,0.876,0.876,0,0,0-.812-0.54h-2.637v-2.64a0.879,0.879,0,0,0-1.5-.62l-2.011,2.01a14.947,14.947,0,1,0,4.758,4.76Zm-6.774-.26,1.758-1.76v1.39a0.877,0.877,0,0,0,.879.88H977l-1.758,1.76h-2.273v-2.27Zm-0.459,4.03a9.676,9.676,0,1,1-1.3-1.3v0.06l-1.246,1.24a7.874,7.874,0,0,0-4.965-1.76,7.94,7.94,0,1,0,7.968,7.97,7.9,7.9,0,0,0-1.76-4.97l1.245-1.24h0.056Zm-8.131,6.83a0.885,0.885,0,0,0,1.243,0l1.8-1.79a2.581,2.581,0,0,1,.279,1.17,2.7,2.7,0,0,1-5.391,0,2.737,2.737,0,0,1,2.7-2.7,2.6,2.6,0,0,1,1.173.28l-1.795,1.8a0.876,0.876,0,0,0,0,1.24h0Zm3.072-4.31a4.36,4.36,0,0,0-2.45-.76,4.506,4.506,0,0,0-4.453,4.45,4.453,4.453,0,0,0,8.906,0,4.373,4.373,0,0,0-.76-2.45l1.253-1.26a6.184,6.184,0,1,1-11.157,3.71,6.291,6.291,0,0,1,6.211-6.21,6.126,6.126,0,0,1,3.7,1.26Zm10.792,3.69A13.242,13.242,0,1,1,965,2562.76a13.443,13.443,0,0,1,6.692,1.79l-0.224.22a0.889,0.889,0,0,0-.257.62v0.93a11.443,11.443,0,1,0,3.469,3.47h0.925a0.858,0.858,0,0,0,.621-0.26l0.225-.22a13.429,13.429,0,0,1,1.791,6.69h0Zm0,0" transform="translate(-950 -2561)"/>
</svg>
