<svg xmlns="http://www.w3.org/2000/svg" width="18" height="18" viewBox="0 0 18 18">
  <defs>
    <style>
      .cls-1 {
        fill: #231f20;
        fill-rule: evenodd;
      }
    </style>
  </defs>
  <path id="fb_icon" data-name="fb icon" class="cls-1" d="M1544,70.927a9,9,0,1,1,9-9A9.015,9.015,0,0,1,1544,70.927Zm0-16.974a7.973,7.973,0,1,0,7.98,7.973A7.986,7.986,0,0,0,1544,53.953Zm0.76,6.392a0.457,0.457,0,0,1,.32-0.064h0.8a0.471,0.471,0,0,0,.47-0.472v-1.4a0.472,0.472,0,0,0-.47-0.472l-1.19,0a2.449,2.449,0,0,0-1.8.7,2.581,2.581,0,0,0-.67,1.84V61.23h-0.91a0.471,0.471,0,0,0-.47.472v1.1a0.471,0.471,0,0,0,.47.472h0.91v2.51a0.471,0.471,0,0,0,.47.472h1.55a0.471,0.471,0,0,0,.47-0.472v-2.51h1.11a0.471,0.471,0,0,0,.47-0.472V61.7a0.47,0.47,0,0,0-.24-0.413,0.475,0.475,0,0,0-.23-0.06h-1.11v-0.6a0.5,0.5,0,0,1,.05-0.289h0Zm0,0" transform="translate(-1535 -52.938)"/>
</svg>
