<svg xmlns="http://www.w3.org/2000/svg" width="29.531" height="29.531" viewBox="0 0 29.531 29.531">
  <defs>
    <style>
      .cls-1 {
        fill: #231f20;
        fill-rule: evenodd;
      }
    </style>
  </defs>
  <path id="icon2" class="cls-1" d="M613.985,578.858a3.912,3.912,0,1,0,2.416,3.614A3.9,3.9,0,0,0,613.985,578.858Zm-1.5,6.028a2.414,2.414,0,1,1,2.23-1.49h0A2.407,2.407,0,0,1,612.489,584.886ZM627.2,602.765l-3.464-9.082a0.753,0.753,0,0,0-.7-0.482h-5.982c2.436-4.1,3.661-7.712,3.643-10.728a8.207,8.207,0,0,0-16.414,0c-0.018,3.019,1.207,6.628,3.643,10.732h-5.981a0.753,0.753,0,0,0-.7.483l-3.463,9.08a0.748,0.748,0,0,0,.7,1.016H626.5A0.749,0.749,0,0,0,627.2,602.765Zm-1.786-.483h-3.191l-2.936-3.814,4.114-1.462Zm-15.334-.54h0L617.8,599l2.528,3.284H608.561Zm9.12-19.266c0.034,5.6-4.93,12.464-6.71,14.741-1.779-2.276-6.743-9.137-6.709-14.745a6.71,6.71,0,1,1,13.419,0h0Zm-6.709,16.684a0.753,0.753,0,0,0,.574-0.268,45.726,45.726,0,0,0,3.059-4.194h6.4l0.346,0.909-12.747,4.533-4.189-5.443h2.927a45.6,45.6,0,0,0,3.063,4.2A0.748,0.748,0,0,0,612.489,599.16Zm-3.856,1.508-4.54,1.614h-4.528l2.894-7.585h1.579Z" transform="translate(-597.719 -574.25)"/>
</svg>
