<svg xmlns="http://www.w3.org/2000/svg" width="29.68" height="29.687" viewBox="0 0 29.68 29.687">
  <defs>
    <style>
      .cls-1 {
        fill: #231f20;
        fill-rule: evenodd;
      }
    </style>
  </defs>
  <path id="icon5" class="cls-1" d="M1418.78,583.431a2.61,2.61,0,0,0-3.69,0c-0.31.313-2.31,2.313-2.62,2.619v-6.894a2.6,2.6,0,0,0-.76-1.845l-2.46-2.461a2.588,2.588,0,0,0-1.84-.765h-14.93a2.613,2.613,0,0,0-2.61,2.611V601.17a2.613,2.613,0,0,0,2.61,2.61h17.39a2.61,2.61,0,0,0,2.6-2.61v-7.735l6.31-6.314A2.607,2.607,0,0,0,1418.78,583.431Zm-8.77,10-0.46.47-1.85.614,0.62-1.845,0.47-.47Zm1.23-1.231-1.23-1.23c0.66-.656,3.57-3.569,4.18-4.185l1.23,1.23Zm-3.22-16.125,2.46,2.461a0.943,0.943,0,0,1,.26.764h-3.48v-3.479A0.942,0.942,0,0,1,1408.02,576.08Zm1.85,25.961h-17.39a0.871,0.871,0,0,1-.87-0.871V576.7a0.871,0.871,0,0,1,.87-0.87h13.04v4.349a0.87,0.87,0,0,0,.87.87h4.34v6.747l-2.56,2.569-1.23,1.229a0.908,0.908,0,0,0-.21.34l-1.23,3.691a0.885,0.885,0,0,0,.21.89,0.87,0.87,0,0,0,.89.211l3.69-1.231a0.874,0.874,0,0,0,.34-0.21l0.1-.106v6A0.863,0.863,0,0,1,1409.87,602.041Zm7.68-16.15-0.9.9-1.23-1.231,0.9-.9A0.87,0.87,0,0,1,1417.55,585.891Zm-23.33-1.366h12.17a0.87,0.87,0,1,0,0-1.74h-12.17A0.87,0.87,0,1,0,1394.22,584.525Zm0,3.48h8.69a0.87,0.87,0,1,0,0-1.74h-8.69A0.87,0.87,0,1,0,1394.22,588.005Zm0,3.479h8.69a0.87,0.87,0,1,0,0-1.739h-8.69A0.87,0.87,0,1,0,1394.22,591.484Zm9.56,2.61a0.87,0.87,0,0,0-.87-0.87h-8.69a0.871,0.871,0,0,0,0,1.741h8.69A0.871,0.871,0,0,0,1403.78,594.094Zm2.61,4.466h-5.22a0.87,0.87,0,1,0,0,1.74h5.22A0.87,0.87,0,1,0,1406.39,598.56Z" transform="translate(-1389.88 -574.094)"/>
</svg>
