<svg xmlns="http://www.w3.org/2000/svg" width="29.531" height="29.531" viewBox="0 0 29.531 29.531">
  <defs>
    <style>
      .cls-1 {
        fill: #231f20;
        fill-rule: evenodd;
      }
    </style>
  </defs>
  <path id="icon3" class="cls-1" d="M894.5,584.632l-2.589.017v-9.534a0.865,0.865,0,0,0-.865-0.865h-8.594a0.866,0.866,0,0,0-.739.414l-1.821,2.988H866.7a0.866,0.866,0,0,0-.865.866v17.3a0.865,0.865,0,0,0,.865.865h4.441c0,3.807,0,3.633,0,3.662a3.493,3.493,0,0,0,3.489,3.432H894.5a0.865,0.865,0,0,0,.865-0.865V585.5a0.864,0.864,0,0,0-.871-0.864h0Zm-26.929,10.324V579.383h12.807a0.867,0.867,0,0,0,.739-0.415l1.821-2.988h7.242v8.68l-12.112.081v-2.648a0.864,0.864,0,0,0-.865-0.864h-2.566a3.493,3.493,0,0,0-3.49,3.489v10.238h-3.576Zm8.767-12V596.8c-1.262.074-2.251-.233-3.461,0.476v-12.56a1.762,1.762,0,0,1,1.76-1.759h1.7Zm17.3,19.091h-19a1.759,1.759,0,1,1,0-3.518H877.2a0.866,0.866,0,0,0,.865-0.866v-11.2l15.573-.1V602.05Zm0,0M880.6,598.532h10.44a0.866,0.866,0,0,0,.477-1.587l-10.439-6.921a0.865,0.865,0,0,0-1.343.721v6.921a0.866,0.866,0,0,0,.865.866h0Zm0.865-6.175,6.7,4.445h-6.7v-4.445Zm0,0" transform="translate(-865.844 -574.25)"/>
</svg>
