<svg xmlns="http://www.w3.org/2000/svg" width="30.09" height="30.09" viewBox="0 0 30.09 30.09">
  <defs>
    <style>
      .cls-1 {
        fill: #908f91;
        fill-rule: evenodd;
      }
    </style>
  </defs>
  <path id="icon_next2" data-name="icon next2" class="cls-1" d="M1564.45,3749.83a15.055,15.055,0,1,1,15.06-15.06A15.074,15.074,0,0,1,1564.45,3749.83Zm0-28.39a13.335,13.335,0,1,0,13.34,13.33A13.345,13.345,0,0,0,1564.45,3721.44Zm-1.93,18.71a1.505,1.505,0,0,1-1.07-2.57l2.81-2.81-2.81-2.81a1.5,1.5,0,1,1,2.13-2.12l3.87,3.87a1.5,1.5,0,0,1,0,2.13l-3.87,3.87A1.508,1.508,0,0,1,1562.52,3740.15Z" transform="translate(-1549.41 -3719.72)"/>
</svg>
