<svg xmlns="http://www.w3.org/2000/svg" width="29.85" height="29.813" viewBox="0 0 29.85 29.813">
  <defs>
    <style>
      .cls-1 {
        fill: #231f20;
        fill-rule: evenodd;
      }
    </style>
  </defs>
  <path id="icon4" class="cls-1" d="M1134.33,578.976a0.836,0.836,0,0,0,.84-0.839v-3.53a0.837,0.837,0,0,0-.84-0.84h-3.53a0.843,0.843,0,0,0-.84.84v0.925h-19.42v-0.925a0.837,0.837,0,0,0-.84-0.84h-3.53a0.843,0.843,0,0,0-.84.84v3.53a0.842,0.842,0,0,0,.84.839h0.93v19.418h-0.93a0.843,0.843,0,0,0-.84.839v3.532a0.843,0.843,0,0,0,.84.84h3.53a0.837,0.837,0,0,0,.84-0.84v-0.927h19.42v0.927a0.843,0.843,0,0,0,.84.84h3.53a0.837,0.837,0,0,0,.84-0.84v-3.532a0.836,0.836,0,0,0-.84-0.839h-0.92V578.976h0.92Zm-2.69-1.678v-1.852h1.85V577.3h-1.85Zm1.85,22.775v1.853h-1.85v-1.853h1.85Zm-23.79-1.679h-0.92V578.976h0.92a0.836,0.836,0,0,0,.84-0.839v-0.926h19.42v0.926a0.842,0.842,0,0,0,.84.839h0.93v19.418h-0.93a0.843,0.843,0,0,0-.84.839v0.926h-19.42v-0.926A0.836,0.836,0,0,0,1109.7,598.394Zm-2.69-21.1v-1.852h1.85V577.3h-1.85Zm1.85,22.775v1.853h-1.85v-1.853h1.85Zm11.39-1.4a0.848,0.848,0,0,0,.43-0.118l4.9-2.845a0.823,0.823,0,0,0,.38-0.516,0.788,0.788,0,0,0-.09-0.635,0.841,0.841,0,0,0-1.15-.292l-4.47,2.589-8.04-4.815,1.16-.7,6.45,3.858a0.846,0.846,0,0,0,.86,0l6.45-3.858,1.17,0.7-1.43.855a0.837,0.837,0,0,0-.29,1.152,0.838,0.838,0,0,0,1.15.289l2.63-1.575a0.827,0.827,0,0,0,.41-0.721,0.84,0.84,0,0,0-.4-0.72l-1.6-.956,1.6-.956a0.85,0.85,0,0,0,0-1.442l-1.6-.955,1.6-.955a0.848,0.848,0,0,0,0-1.44l-9.69-5.794a0.83,0.83,0,0,0-.86,0l-9.68,5.794a0.837,0.837,0,0,0,0,1.44l1.6,0.955-1.6.956a0.838,0.838,0,0,0,0,1.441l1.6,0.956-1.6.956a0.838,0.838,0,0,0,0,1.441l9.68,5.791A0.831,0.831,0,0,0,1120.25,598.67Zm0.43-6.825,6.45-3.857,1.17,0.7-8.05,4.816-8.04-4.816,1.16-.7,6.45,3.858A0.849,0.849,0,0,0,1120.68,591.845Zm-8.47-6.512,8.04-4.815,8.05,4.815-8.05,4.814Zm9.67-2.933-1.2-.718a0.837,0.837,0,0,0-.86,0l-1.2.717a0.82,0.82,0,0,0-.38.516,0.83,0.83,0,0,0,.09.635,0.849,0.849,0,0,0,.52.384,0.886,0.886,0,0,0,.21.025,0.821,0.821,0,0,0,.42-0.119l0.77-.459,0.77,0.459a0.838,0.838,0,0,0,1.15-.29A0.836,0.836,0,0,0,1121.88,582.4Zm3.7,2.214-1.53-.919a0.852,0.852,0,0,0-.64-0.094,0.805,0.805,0,0,0-.51.383,0.836,0.836,0,0,0-.1.636,0.863,0.863,0,0,0,.38.516l0.34,0.2-0.34.2a0.857,0.857,0,0,0-.38.516,0.843,0.843,0,0,0,1.25.925l1.53-.918A0.837,0.837,0,0,0,1125.58,584.614Zm-8.26.917-0.33-.2,0.33-.2a0.836,0.836,0,0,0,.29-1.151h0a0.848,0.848,0,0,0-.52-0.383,0.827,0.827,0,0,0-.63.094l-1.54.919a0.848,0.848,0,0,0,0,1.44l1.54,0.918a0.839,0.839,0,0,0,.43.119,0.848,0.848,0,0,0,.72-0.408A0.837,0.837,0,0,0,1117.32,585.531Zm4.34,1.2a0.841,0.841,0,0,0-.64.094l-0.77.459-0.77-.459a0.816,0.816,0,0,0-.63-0.094,0.849,0.849,0,0,0-.52.384,0.848,0.848,0,0,0,.29,1.151l1.2,0.716a0.83,0.83,0,0,0,.86,0l1.2-.716A0.841,0.841,0,0,0,1121.66,586.732Z" transform="translate(-1105.34 -573.781)"/>
</svg>
