<svg xmlns="http://www.w3.org/2000/svg" width="30" height="30" viewBox="0 0 30 30">
  <defs>
    <style>
      .cls-1 {
        fill: #231f20;
        fill-rule: evenodd;
      }
    </style>
  </defs>
  <path id="icon1" class="cls-1" d="M369.414,577.177H359.1a0.586,0.586,0,0,0-.586.586v6.563h-8.386a5.2,5.2,0,0,0-2.14-2.956,3.282,3.282,0,0,0,.47-1.845,3.324,3.324,0,0,0-3.148-3.164,3.307,3.307,0,0,0-2.989,5.008,5.2,5.2,0,0,0-1.151,1.042v-7.226h11.25v6.808a0.586,0.586,0,0,0,1.172,0V574.6a0.586,0.586,0,0,0-.586-0.586H340.585a0.586,0.586,0,0,0-.586.586v21.293a0.586,0.586,0,0,0,.586.586h0.942a28.9,28.9,0,0,1,3.549.218l0.029,0a28.841,28.841,0,0,1,11.283,3.889,30.207,30.207,0,0,0-4.345,2.349,0.586,0.586,0,0,0,.64.982,28.853,28.853,0,0,1,15.789-4.69h0.942a0.586,0.586,0,0,0,.586-0.586v0h0V577.763a0.586,0.586,0,0,0-.586-0.586h0Zm-0.586,1.172v12.364a2.589,2.589,0,0,0-.509-0.258,2.986,2.986,0,1,0-5.87-1.047,1.942,1.942,0,0,0-.791,1.572h0a2.586,2.586,0,0,0,.853,4.319,3.153,3.153,0,0,0,2.318,1.849v1.129a29.914,29.914,0,0,0-5.142,1.088V587.842h1.729a0.586,0.586,0,1,0,0-1.172h-1.729v-1.992h5.923a0.586,0.586,0,0,0,0-1.172h-5.923v-1.993h3.579a0.586,0.586,0,1,0,0-1.171h-3.579v-1.993h9.141ZM365.415,591.4a0.586,0.586,0,0,0-.586.586v3.955a1.987,1.987,0,0,1-1.314-1.3,0.587,0.587,0,0,0-.424-0.392,1.413,1.413,0,0,1-.486-2.533,0.589,0.589,0,0,0,.24-0.591,0.753,0.753,0,0,1-.015-0.149,0.78,0.78,0,0,1,.441-0.705,0.585,0.585,0,0,0,.329-0.524,1.815,1.815,0,0,1,3.63.008,1.785,1.785,0,0,1-.211.848,0.587,0.587,0,0,0,.482.86,1.413,1.413,0,0,1,.238,2.786,0.587,0.587,0,0,0-.425.392,1.986,1.986,0,0,1-1.313,1.3v-3.955a0.586,0.586,0,0,0-.586-0.586h0Zm-21.969-9.324a0.586,0.586,0,0,0,.171-0.936,2.133,2.133,0,0,1,1.538-3.613l0.1,0a2.145,2.145,0,0,1,2.031,2.043,2.116,2.116,0,0,1-.594,1.568,0.586,0.586,0,0,0,.171.936,3.984,3.984,0,0,1,1,6.521,0.587,0.587,0,0,0-.135.672,2.827,2.827,0,0,1-1.988,3.93v-12.66a0.586,0.586,0,0,0-1.172,0V593.2a2.854,2.854,0,0,1-2.239-2.715,2.82,2.82,0,0,1,.2-1.094,0.817,0.817,0,0,0-.182-0.885,3.955,3.955,0,0,1-1.178-2.827,4,4,0,0,1,2.275-3.6h0Zm2.295,12.314a3.955,3.955,0,0,0,2.212-1.1c0.011-.009.02-0.02,0.03-0.03V596q-1.111-.243-2.242-0.4v-1.21Zm-4.377-5.22a3.9,3.9,0,0,0-.193.951v-1.174c0.062,0.076.126,0.15,0.193,0.223h0Zm-0.193,6.134v-4.56a4.01,4.01,0,0,0,3.4,3.644v1.07q-1.511-.151-3.042-0.154h-0.356Zm7.984,0.98v-5.192a0.593,0.593,0,0,0-.031-0.185,4.11,4.11,0,0,0,.029-0.472,3.951,3.951,0,0,0-.206-1.266,5.173,5.173,0,0,0,1.365-3.493c0-.06,0-0.12,0-0.18h8.207V599.75c-0.264.092-.527,0.189-0.789,0.289a30.1,30.1,0,0,0-8.571-3.753h0ZM366,598.159v-1.01a3.155,3.155,0,0,0,2.318-1.849,2.554,2.554,0,0,0,.509-0.256v3.013h-0.356q-1.242,0-2.471.1h0Zm0,0M351.962,587.33a0.587,0.587,0,0,0-.586.586v0.825a0.586,0.586,0,0,0,1.172,0v-0.825a0.586,0.586,0,0,0-.586-0.586h0Zm0,0,3.746,0a0.586,0.586,0,0,0-.586.586v0.825a0.586,0.586,0,1,0,1.171,0v-0.825a0.586,0.586,0,0,0-.585-0.586h0Zm0,0-3.746,3.375a0.585,0.585,0,0,0-.586.585v0.825a0.586,0.586,0,0,0,1.172,0V591.29a0.585,0.585,0,0,0-.586-0.585h0Zm0,0,3.746,0a0.585,0.585,0,0,0-.586.585v0.825a0.586,0.586,0,1,0,1.171,0V591.29a0.584,0.584,0,0,0-.585-0.585h0Zm0,0-3.746,3.374a0.586,0.586,0,0,0-.586.585v0.825a0.586,0.586,0,0,0,1.172,0v-0.825a0.585,0.585,0,0,0-.586-0.585h0Zm0,0,3.746,0a0.585,0.585,0,0,0-.586.585v0.825a0.586,0.586,0,1,0,1.171,0v-0.825a0.585,0.585,0,0,0-.585-0.585h0Zm0,0" transform="translate(-340 -574)"/>
</svg>
