<svg xmlns="http://www.w3.org/2000/svg" width="12" height="12" viewBox="0 0 12 12">
  <defs>
    <style>
      .cls-1 {
        fill: #00aedb;
        fill-rule: evenodd;
      }
    </style>
  </defs>
  <path id="mail_icon" data-name="mail icon" class="cls-1" d="M937.711,20.311a6.006,6.006,0,0,0,0,12.013,0.712,0.712,0,0,0,0-1.425,4.582,4.582,0,1,1,4.582-4.582v1.324a0.612,0.612,0,0,1-1.223,0V26.317a3.364,3.364,0,1,0-1.076,2.462,2.035,2.035,0,0,0,3.723-1.138V26.317A6.013,6.013,0,0,0,937.711,20.311Zm1.935,6.006a1.935,1.935,0,1,1-1.935-1.934A1.937,1.937,0,0,1,939.646,26.317Z" transform="translate(-931.719 -20.313)"/>
</svg>
