<svg xmlns="http://www.w3.org/2000/svg" width="9.344" height="12" viewBox="0 0 9.344 12">
  <defs>
    <style>
      .cls-1 {
        fill: #00aedb;
        fill-rule: evenodd;
      }
    </style>
  </defs>
  <path id="map_icon" data-name="map icon" class="cls-1" d="M659.65,20.647a4.681,4.681,0,0,0-4.674,4.677,8.114,8.114,0,0,0,2.175,5.276,11.419,11.419,0,0,0,2.154,1.943,0.63,0.63,0,0,0,.69,0,11.4,11.4,0,0,0,2.153-1.943,8.116,8.116,0,0,0,2.176-5.277A4.681,4.681,0,0,0,659.65,20.647Zm3.413,4.677c0,2.967-2.453,5.165-3.413,5.91-0.96-.744-3.414-2.942-3.414-5.91A3.414,3.414,0,1,1,663.063,25.324Zm-3.413-2a2,2,0,1,0,2,2A2,2,0,0,0,659.65,23.326Zm0.734,2a0.735,0.735,0,1,1-.734-0.735A0.735,0.735,0,0,1,660.384,25.323Z" transform="translate(-654.969 -20.656)"/>
</svg>
