<svg xmlns="http://www.w3.org/2000/svg" width="25" height="25" viewBox="0 0 25 25">
  <defs>
    <style>
      .cls-1 {
        fill: #fff;
        fill-rule: evenodd;
      }
    </style>
  </defs>
  <path id="message_icon" data-name="message icon" class="cls-1" d="M1232.5,3337.02a1.48,1.48,0,1,0,1.48,1.48A1.477,1.477,0,0,0,1232.5,3337.02Zm8.84-7.36a12.5,12.5,0,0,0-19.75,14.95l-1.53,4.77a1.249,1.249,0,0,0,.3,1.26,1.285,1.285,0,0,0,.88.36,1.256,1.256,0,0,0,.38-0.06l4.77-1.54A12.5,12.5,0,0,0,1241.34,3329.66Zm-8.84,18.86a9.991,9.991,0,0,1-5.3-1.52,1.3,1.3,0,0,0-.66-0.19,1.209,1.209,0,0,0-.38.06l-3,.97,0.97-3a1.267,1.267,0,0,0-.13-1.04A10.018,10.018,0,1,1,1232.5,3348.52Zm-4.77-11.5a1.48,1.48,0,1,0,1.48,1.48A1.477,1.477,0,0,0,1227.73,3337.02Zm9.54,0a1.48,1.48,0,1,0,1.48,1.48A1.483,1.483,0,0,0,1237.27,3337.02Z" transform="translate(-1220 -3326)"/>
</svg>
