<svg xmlns="http://www.w3.org/2000/svg" width="12" height="12" viewBox="0 0 12 12">
  <defs>
    <style>
      .cls-1 {
        fill: #00aedb;
        fill-rule: evenodd;
      }
    </style>
  </defs>
  <path id="phone_icon" data-name="phone icon" class="cls-1" d="M942.362,47.584A5.584,5.584,0,0,0,938.44,46h0a0.742,0.742,0,1,0,0,1.483,4.052,4.052,0,0,1,2.845,1.147,3.84,3.84,0,0,1,1.179,2.77,0.762,0.762,0,0,0,1.524,0A5.285,5.285,0,0,0,942.362,47.584Zm-1.529,4.56A0.753,0.753,0,0,0,941.6,51.4a3.118,3.118,0,0,0-3.155-3.071,0.742,0.742,0,1,0,0,1.484A1.611,1.611,0,0,1,940.07,51.4h0A0.754,0.754,0,0,0,940.833,52.145Zm-1.306.961h0a1.6,1.6,0,0,0-1.408.789,0.731,0.731,0,0,0,.2,1.031,0.778,0.778,0,0,0,1.06-.194c0.044-.063.075-0.1,0.095-0.127a5.736,5.736,0,0,1,1.566,1.133,0.269,0.269,0,0,1-.011.048,1.094,1.094,0,0,1-.52.664,1.038,1.038,0,0,1-.78-0.041,11.33,11.33,0,0,1-3.7-2.346l-0.007-.007a10.966,10.966,0,0,1-2.4-3.591,0.961,0.961,0,0,1-.042-0.76,1.114,1.114,0,0,1,.681-0.506,0.174,0.174,0,0,1,.051-0.011,5.654,5.654,0,0,1,1.162,1.523,1.552,1.552,0,0,1-.129.093,0.74,0.74,0,0,0-.32.475,0.722,0.722,0,0,0,.12.556,0.775,0.775,0,0,0,1.059.195,1.548,1.548,0,0,0,.812-1.373,5.1,5.1,0,0,0-2.155-2.856,1.626,1.626,0,0,0-1.085-.009,2.542,2.542,0,0,0-1.582,1.294,2.341,2.341,0,0,0,.016,1.938,12.432,12.432,0,0,0,2.739,4.089l0.013,0.012a12.844,12.844,0,0,0,4.193,2.659,2.859,2.859,0,0,0,1.052.212,2.283,2.283,0,0,0,.938-0.2,2.511,2.511,0,0,0,1.33-1.541,1.5,1.5,0,0,0-.008-1.051A5.22,5.22,0,0,0,939.527,53.106Z" transform="translate(-932 -46)"/>
</svg>
