<svg xmlns="http://www.w3.org/2000/svg" width="12" height="14" viewBox="0 0 12 14">
  <defs>
    <style>
      .cls-1 {
        fill: #fff;
        fill-rule: evenodd;
      }
    </style>
  </defs>
  <path id="play" class="cls-1" d="M824.006,403.371l-4.242-2.578h0l-4.212-2.547h0a1.612,1.612,0,0,0-1.288-.184,1.719,1.719,0,0,0-1.023.828h0a1.871,1.871,0,0,0-.176.43c-0.029.092-.029,0.215-0.059,0.338v10.558a1.854,1.854,0,0,0,.5,1.258h0a1.617,1.617,0,0,0,1.2.522,2.776,2.776,0,0,0,.966-0.338l4.153-2.516h0.03l0.029-.031,4.3-2.609h0a1.758,1.758,0,0,0,.79-1.105,1.217,1.217,0,0,0,.029-0.338A2.333,2.333,0,0,0,824.006,403.371Z" transform="translate(-813 -398)"/>
</svg>
