<svg xmlns="http://www.w3.org/2000/svg" width="20" height="19.97" viewBox="0 0 20 19.97">
  <defs>
    <style>
      .cls-1 {
        fill: #908f91;
        fill-rule: evenodd;
      }
    </style>
  </defs>
  <path id="plus" class="cls-1" d="M1202.99,1529.99a9.99,9.99,0,1,0-9.99,9.99A10.006,10.006,0,0,0,1202.99,1529.99Zm-18.84,0a8.85,8.85,0,1,1,8.85,8.85A8.858,8.858,0,0,1,1184.15,1529.99Zm12-1.18h-1.7v-1.62a1.252,1.252,0,0,0-2.5,0v1.62h-1.7a1.191,1.191,0,1,0,0,2.38h1.7v1.62a1.252,1.252,0,0,0,2.5,0v-1.62h1.7A1.191,1.191,0,1,0,1196.15,1528.81Z" transform="translate(-1183 -1520)"/>
</svg>
