<svg xmlns="http://www.w3.org/2000/svg" width="18" height="17.969" viewBox="0 0 18 17.969">
  <defs>
    <style>
      .cls-1 {
        fill: #231f20;
        fill-rule: evenodd;
      }
    </style>
  </defs>
  <path id="search_icon" data-name="search icon" class="cls-1" d="M1349.21,47l-4.44-4.45a7.1,7.1,0,0,0,1.77-4.669,7.525,7.525,0,1,0-7.52,7.262,7.643,7.643,0,0,0,4.31-1.315l4.46,4.486a1,1,0,0,0,.71.291,1.013,1.013,0,0,0,.68-0.264,0.93,0.93,0,0,0,.03-1.34h0Zm-10.19-14.485a5.37,5.37,0,1,1-5.56,5.366,5.476,5.476,0,0,1,5.56-5.366h0Zm0,0" transform="translate(-1331.5 -30.625)"/>
</svg>
