<svg xmlns="http://www.w3.org/2000/svg" width="16.5" height="18.031" viewBox="0 0 16.5 18.031">
  <defs>
    <style>
      .cls-1 {
        fill: #231f20;
        fill-rule: evenodd;
      }
    </style>
  </defs>
  <path id="social_network_all_icon" data-name="social network all icon" class="cls-1" d="M1457.15,43.222a3.114,3.114,0,0,0-2.19.905l-5.09-2.9a3.047,3.047,0,0,0,0-1.548l5.09-2.9a3.11,3.11,0,1,0-.93-2.211,3.146,3.146,0,0,0,.06.611l-5.17,2.951a3.116,3.116,0,1,0,0,4.652l5.17,2.951a3.119,3.119,0,0,0,3.06,3.728A3.117,3.117,0,0,0,1457.15,43.222Z" transform="translate(-1443.75 -31.438)"/>
</svg>
