<svg xmlns="http://www.w3.org/2000/svg" xmlns:xlink="http://www.w3.org/1999/xlink" width="18" height="18" viewBox="0 0 18 18">
  <defs>
    <style>
      .cls-1 {
        fill: #231f20;
        fill-rule: evenodd;
        filter: url(#filter);
      }
    </style>
    <filter id="filter" x="1508" y="52.938" width="18" height="18" filterUnits="userSpaceOnUse">
      <feFlood result="flood" flood-color="#00aedb"/>
      <feComposite result="composite" operator="in" in2="SourceGraphic"/>
      <feBlend result="blend" in2="SourceGraphic"/>
    </filter>
  </defs>
  <path id="vk_icon" data-name="vk icon" class="cls-1" d="M1517,70.925a9,9,0,1,1,9-9A9.012,9.012,0,0,1,1517,70.925Zm0-16.971a7.971,7.971,0,1,0,7.97,7.972A7.976,7.976,0,0,0,1517,53.954Zm4.31,10.217a9.507,9.507,0,0,0-.68-0.835c-0.08-.093-0.17-0.19-0.25-0.286a0.46,0.46,0,0,1-.06-0.692c0.13-.215.27-0.431,0.4-0.641,0.12-.189.24-0.385,0.36-0.581l0.03-.041a5.163,5.163,0,0,0,.59-1.235,0.665,0.665,0,0,0-.02-0.458,0.44,0.44,0,0,0-.33-0.22,0.858,0.858,0,0,0-.16-0.012h-1.5a0.469,0.469,0,0,0-.46.388c-0.09.25-.18,0.515-0.28,0.768a6.687,6.687,0,0,1-.85,1.565l-0.02.021a0.258,0.258,0,0,1-.13.123,0.059,0.059,0,0,1-.02,0,0.54,0.54,0,0,1-.13-0.371V59.573a0.575,0.575,0,0,0-.44-0.617,0.145,0.145,0,0,0-.03,0h-1.54a0.611,0.611,0,0,0-.53.306,0.357,0.357,0,0,0-.07.275,0.25,0.25,0,0,0,.2.161,0.439,0.439,0,0,1,.33.434,6.822,6.822,0,0,1,.02,1.444,1.237,1.237,0,0,1-.07.375,0.128,0.128,0,0,1-.06.1,0.159,0.159,0,0,1-.09-0.046,1.461,1.461,0,0,1-.31-0.412,10.775,10.775,0,0,1-.9-1.984,0.545,0.545,0,0,0-.49-0.433c-0.25,0-.47-0.007-0.69-0.007s-0.45,0-.66.008a0.4,0.4,0,0,0-.37.193,0.586,0.586,0,0,0,.01.485,21.868,21.868,0,0,0,1.75,3.734,4.931,4.931,0,0,0,1.37,1.523,3.059,3.059,0,0,0,1.79.532c0.08,0,.16,0,0.24-0.006a0.54,0.54,0,0,0,.56-0.658,1.812,1.812,0,0,1,.13-0.7,0.16,0.16,0,0,1,.14-0.133,0.255,0.255,0,0,1,.13.057,1.56,1.56,0,0,1,.22.237c0.06,0.075.11,0.151,0.17,0.227,0.12,0.163.25,0.333,0.38,0.494a1.1,1.1,0,0,0,.97.473h1.38a0.4,0.4,0,0,0,.32-0.248,0.745,0.745,0,0,0,0-.62,3.075,3.075,0,0,0-.35-0.6h0Zm0,0" transform="translate(-1508 -52.938)"/>
</svg>
